<svg width="41" height="40" viewBox="0 0 41 40" fill="none" xmlns="http://www.w3.org/2000/svg">
<g clip-path="url(#clip0_169_15)">
<path d="M34.3199 0H5.96011C2.72025 0 0.0844727 2.62848 0.0844727 5.85938V34.1406C0.0844727 37.3715 2.72025 40 5.96011 40H34.3199C37.5597 40 40.1955 37.3715 40.1955 34.1406V5.85938C40.1955 2.62848 37.5597 0 34.3199 0ZM37.8453 34.1406C37.8453 36.0791 36.2637 37.6562 34.3199 37.6562H5.96011C4.01625 37.6562 2.43473 36.0791 2.43473 34.1406V5.85938C2.43473 3.9209 4.01625 2.34375 5.96011 2.34375H34.3199C36.2637 2.34375 37.8453 3.9209 37.8453 5.85938V34.1406Z" fill="#070707" stroke="#070707" stroke-width="0.5"/>
<path d="M18.9649 16.4844C18.9649 13.8995 16.8564 11.7969 14.2644 11.7969H7.21362V28.2031H14.2644C16.8564 28.2031 18.9649 26.1005 18.9649 23.5156C18.9649 22.1167 18.3464 20.8597 17.3684 20C18.3464 19.1403 18.9649 17.8833 18.9649 16.4844ZM16.6146 23.5156C16.6146 24.808 15.5604 25.8594 14.2644 25.8594H9.56388V21.1719H14.2644C15.5604 21.1719 16.6146 22.2232 16.6146 23.5156ZM9.56388 18.8281V14.1406H14.2644C15.5604 14.1406 16.6146 15.192 16.6146 16.4844C16.6146 17.7768 15.5604 18.8281 14.2644 18.8281H9.56388Z" fill="#070707" stroke="#070707" stroke-width="0.5"/>
<path d="M27.1908 16.4844C23.951 16.4844 21.3152 19.1129 21.3152 22.3438C21.3152 25.5746 23.951 28.2031 27.1908 28.2031C29.2819 28.2031 31.2319 27.081 32.2797 25.2744L30.2452 24.1006C29.6161 25.1855 28.4455 25.8594 27.1908 25.8594C25.6586 25.8594 24.3519 24.8798 23.8668 23.5156H33.0665V22.3438C33.0665 19.1129 30.4307 16.4844 27.1908 16.4844ZM23.8668 21.1719C24.3519 19.8077 25.6586 18.8281 27.1908 18.8281C28.7231 18.8281 30.0298 19.8077 30.5148 21.1719H23.8668Z" fill="#070707" stroke="#070707" stroke-width="0.5"/>
<path d="M22.4902 11.7969H31.8913V14.1406H22.4902V11.7969Z" fill="#070707" stroke="#070707" stroke-width="0.5"/>
</g>
<defs>
<clipPath id="clip0_169_15">
<rect width="40.111" height="40" fill="white" transform="translate(0.0844727)"/>
</clipPath>
</defs>
</svg>
